<svg width="32" height="32" viewBox="0 0 32 32" fill="none" xmlns="http://www.w3.org/2000/svg">
<path d="M5.33464 5.33301C4.62739 5.33301 3.94911 5.61396 3.44902 6.11406C2.94892 6.61415 2.66797 7.29243 2.66797 7.99967V13.333C3.37521 13.333 4.05349 13.614 4.55359 14.1141C5.05368 14.6142 5.33464 15.2924 5.33464 15.9997C5.33464 16.7069 5.05368 17.3852 4.55359 17.8853C4.05349 18.3854 3.37521 18.6663 2.66797 18.6663V23.9997C2.66797 24.7069 2.94892 25.3852 3.44902 25.8853C3.94911 26.3854 4.62739 26.6663 5.33464 26.6663H26.668C27.3752 26.6663 28.0535 26.3854 28.5536 25.8853C29.0537 25.3852 29.3346 24.7069 29.3346 23.9997V18.6663C28.6274 18.6663 27.9491 18.3854 27.449 17.8853C26.9489 17.3852 26.668 16.7069 26.668 15.9997C26.668 15.2924 26.9489 14.6142 27.449 14.1141C27.9491 13.614 28.6274 13.333 29.3346 13.333V7.99967C29.3346 7.29243 29.0537 6.61415 28.5536 6.11406C28.0535 5.61396 27.3752 5.33301 26.668 5.33301H5.33464ZM20.668 9.33301L22.668 11.333L11.3346 22.6663L9.33463 20.6663L20.668 9.33301ZM11.748 9.38634C13.0546 9.38634 14.108 10.4397 14.108 11.7463C14.108 12.3723 13.8593 12.9725 13.4167 13.4151C12.9742 13.8577 12.3739 14.1063 11.748 14.1063C10.4413 14.1063 9.38797 13.053 9.38797 11.7463C9.38797 11.1204 9.63661 10.5202 10.0792 10.0776C10.5218 9.63498 11.1221 9.38634 11.748 9.38634ZM20.2546 17.893C21.5613 17.893 22.6146 18.9463 22.6146 20.253C22.6146 20.8789 22.366 21.4792 21.9234 21.9218C21.4808 22.3644 20.8805 22.613 20.2546 22.613C18.948 22.613 17.8946 21.5597 17.8946 20.253C17.8946 19.6271 18.1433 19.0268 18.5859 18.5842C19.0284 18.1416 19.6287 17.893 20.2546 17.893Z" fill="#2B3136"/>
</svg>
