<svg width="34" height="34" viewBox="0 0 34 34" fill="none" xmlns="http://www.w3.org/2000/svg">
<mask id="path-1-inside-1_3028_1102" fill="white">
<path d="M30.268 19.1569C29.936 18.9013 29.5493 18.7259 29.1383 18.6446C28.7272 18.5633 28.3029 18.5781 27.8986 18.688L21.3496 20.1875C21.6324 19.704 21.7814 19.1539 21.7812 18.5938C21.7812 17.7484 21.4454 16.9376 20.8477 16.3398C20.2499 15.7421 19.4391 15.4063 18.5937 15.4063H11.9452C11.4566 15.4048 10.9726 15.5003 10.5211 15.6872C10.0697 15.8741 9.65993 16.1488 9.31547 16.4953L6.15453 19.6563H2.125C1.70231 19.6563 1.29693 19.8242 0.998049 20.1231C0.699162 20.4219 0.53125 20.8273 0.53125 21.25V26.5625C0.53125 26.9852 0.699162 27.3906 0.998049 27.6895C1.29693 27.9883 1.70231 28.1563 2.125 28.1563H15.9375C15.9823 28.1566 16.0269 28.1512 16.0703 28.1403L24.5703 26.0153C24.5974 26.0082 24.624 25.9993 24.65 25.9888L29.8058 23.792L29.835 23.7788C30.2504 23.5711 30.6061 23.2612 30.8686 22.8781C31.1311 22.495 31.2918 22.0514 31.3355 21.589C31.3792 21.1267 31.3045 20.6608 31.1185 20.2353C30.9324 19.8098 30.6411 19.4387 30.2719 19.1569H30.268ZM1.59375 26.5625V21.25C1.59375 21.1091 1.64972 20.974 1.74935 20.8744C1.84898 20.7747 1.9841 20.7188 2.125 20.7188H5.84375V27.0938H2.125C1.9841 27.0938 1.84898 27.0378 1.74935 26.9382C1.64972 26.8385 1.59375 26.7034 1.59375 26.5625ZM29.3688 22.8212L24.2675 24.9953L15.8724 27.0938H6.90625V20.408L10.0672 17.247C10.3132 16.9995 10.6058 16.8033 10.9282 16.6697C11.2505 16.5361 11.5962 16.4678 11.9452 16.4688H18.5937C19.1573 16.4688 19.6978 16.6926 20.0963 17.0912C20.4949 17.4897 20.7187 18.0302 20.7187 18.5938C20.7187 19.1573 20.4949 19.6978 20.0963 20.0964C19.6978 20.4949 19.1573 20.7188 18.5937 20.7188H14.875C14.7341 20.7188 14.599 20.7747 14.4993 20.8744C14.3997 20.974 14.3437 21.1091 14.3437 21.25C14.3437 21.3909 14.3997 21.526 14.4993 21.6257C14.599 21.7253 14.7341 21.7813 14.875 21.7813H19.125C19.1652 21.7814 19.2053 21.7769 19.2445 21.768L28.143 19.7213H28.1642C28.563 19.6156 28.9867 19.6609 29.3541 19.8485C29.7215 20.036 30.0066 20.3527 30.1548 20.7377C30.303 21.1227 30.3038 21.5488 30.157 21.9343C30.0102 22.3198 29.7262 22.6376 29.3595 22.8265L29.3688 22.8212ZM21.7812 12.2188C22.1732 12.2193 22.5634 12.1657 22.9407 12.0594C23.1215 12.8918 23.5482 13.6507 24.1656 14.2376C24.783 14.8245 25.5624 15.2124 26.4029 15.3509C27.2434 15.4894 28.1061 15.3721 28.8792 15.0143C29.6522 14.6564 30.2999 14.0746 30.7381 13.3442C31.1764 12.6137 31.3851 11.7685 31.3371 10.918C31.2892 10.0675 30.9867 9.25109 30.469 8.57461C29.9514 7.89813 29.2424 7.39282 28.434 7.12422C27.6256 6.85562 26.7552 6.83613 25.9356 7.06828C25.7657 6.28455 25.3775 5.56489 24.8159 4.99244C24.2543 4.41999 23.5422 4.01811 22.7619 3.83323C21.9816 3.64836 21.1648 3.68803 20.4061 3.94767C19.6474 4.2073 18.9776 4.67631 18.4741 5.3005C17.9706 5.92469 17.654 6.67859 17.5609 7.4751C17.4677 8.2716 17.6018 9.07821 17.9477 9.80173C18.2936 10.5252 18.8371 11.1361 19.5154 11.5638C20.1938 11.9915 20.9793 12.2186 21.7812 12.2188ZM30.2812 11.1563C30.2812 11.7867 30.0943 12.403 29.7441 12.9271C29.3938 13.4513 28.896 13.8599 28.3136 14.1011C27.7311 14.3424 27.0902 14.4055 26.4719 14.2825C25.8536 14.1595 25.2856 13.8559 24.8398 13.4102C24.3941 12.9644 24.0905 12.3964 23.9675 11.7781C23.8445 11.1598 23.9076 10.5189 24.1489 9.93645C24.3901 9.35401 24.7987 8.85619 25.3229 8.50594C25.847 8.15569 26.4633 7.96875 27.0937 7.96875C27.9391 7.96875 28.7499 8.30458 29.3477 8.90235C29.9454 9.50012 30.2812 10.3109 30.2812 11.1563ZM21.7812 4.78125C22.5452 4.78117 23.2838 5.05548 23.8625 5.55423C24.4412 6.05298 24.8215 6.74298 24.9342 7.49859C24.3239 7.85771 23.813 8.36364 23.4479 8.97041C23.0828 9.57717 22.8752 10.2655 22.8437 10.973C22.406 11.1282 21.9396 11.1859 21.4773 11.142C21.0149 11.0981 20.5677 10.9537 20.167 10.7189C19.7662 10.4841 19.4217 10.1645 19.1574 9.78259C18.8931 9.40067 18.7154 8.96561 18.6369 8.50785C18.5583 8.05009 18.5808 7.58069 18.7026 7.1325C18.8245 6.68432 19.0428 6.26818 19.3423 5.91321C19.6418 5.55823 20.0153 5.273 20.4366 5.07747C20.8579 4.88194 21.3168 4.78085 21.7812 4.78125Z"/>
</mask>
<path d="M30.268 19.1569C29.936 18.9013 29.5493 18.7259 29.1383 18.6446C28.7272 18.5633 28.3029 18.5781 27.8986 18.688L21.3496 20.1875C21.6324 19.704 21.7814 19.1539 21.7812 18.5938C21.7812 17.7484 21.4454 16.9376 20.8477 16.3398C20.2499 15.7421 19.4391 15.4063 18.5937 15.4063H11.9452C11.4566 15.4048 10.9726 15.5003 10.5211 15.6872C10.0697 15.8741 9.65993 16.1488 9.31547 16.4953L6.15453 19.6563H2.125C1.70231 19.6563 1.29693 19.8242 0.998049 20.1231C0.699162 20.4219 0.53125 20.8273 0.53125 21.25V26.5625C0.53125 26.9852 0.699162 27.3906 0.998049 27.6895C1.29693 27.9883 1.70231 28.1563 2.125 28.1563H15.9375C15.9823 28.1566 16.0269 28.1512 16.0703 28.1403L24.5703 26.0153C24.5974 26.0082 24.624 25.9993 24.65 25.9888L29.8058 23.792L29.835 23.7788C30.2504 23.5711 30.6061 23.2612 30.8686 22.8781C31.1311 22.495 31.2918 22.0514 31.3355 21.589C31.3792 21.1267 31.3045 20.6608 31.1185 20.2353C30.9324 19.8098 30.6411 19.4387 30.2719 19.1569H30.268ZM1.59375 26.5625V21.25C1.59375 21.1091 1.64972 20.974 1.74935 20.8744C1.84898 20.7747 1.9841 20.7188 2.125 20.7188H5.84375V27.0938H2.125C1.9841 27.0938 1.84898 27.0378 1.74935 26.9382C1.64972 26.8385 1.59375 26.7034 1.59375 26.5625ZM29.3688 22.8212L24.2675 24.9953L15.8724 27.0938H6.90625V20.408L10.0672 17.247C10.3132 16.9995 10.6058 16.8033 10.9282 16.6697C11.2505 16.5361 11.5962 16.4678 11.9452 16.4688H18.5937C19.1573 16.4688 19.6978 16.6926 20.0963 17.0912C20.4949 17.4897 20.7187 18.0302 20.7187 18.5938C20.7187 19.1573 20.4949 19.6978 20.0963 20.0964C19.6978 20.4949 19.1573 20.7188 18.5937 20.7188H14.875C14.7341 20.7188 14.599 20.7747 14.4993 20.8744C14.3997 20.974 14.3437 21.1091 14.3437 21.25C14.3437 21.3909 14.3997 21.526 14.4993 21.6257C14.599 21.7253 14.7341 21.7813 14.875 21.7813H19.125C19.1652 21.7814 19.2053 21.7769 19.2445 21.768L28.143 19.7213H28.1642C28.563 19.6156 28.9867 19.6609 29.3541 19.8485C29.7215 20.036 30.0066 20.3527 30.1548 20.7377C30.303 21.1227 30.3038 21.5488 30.157 21.9343C30.0102 22.3198 29.7262 22.6376 29.3595 22.8265L29.3688 22.8212ZM21.7812 12.2188C22.1732 12.2193 22.5634 12.1657 22.9407 12.0594C23.1215 12.8918 23.5482 13.6507 24.1656 14.2376C24.783 14.8245 25.5624 15.2124 26.4029 15.3509C27.2434 15.4894 28.1061 15.3721 28.8792 15.0143C29.6522 14.6564 30.2999 14.0746 30.7381 13.3442C31.1764 12.6137 31.3851 11.7685 31.3371 10.918C31.2892 10.0675 30.9867 9.25109 30.469 8.57461C29.9514 7.89813 29.2424 7.39282 28.434 7.12422C27.6256 6.85562 26.7552 6.83613 25.9356 7.06828C25.7657 6.28455 25.3775 5.56489 24.8159 4.99244C24.2543 4.41999 23.5422 4.01811 22.7619 3.83323C21.9816 3.64836 21.1648 3.68803 20.4061 3.94767C19.6474 4.2073 18.9776 4.67631 18.4741 5.3005C17.9706 5.92469 17.654 6.67859 17.5609 7.4751C17.4677 8.2716 17.6018 9.07821 17.9477 9.80173C18.2936 10.5252 18.8371 11.1361 19.5154 11.5638C20.1938 11.9915 20.9793 12.2186 21.7812 12.2188ZM30.2812 11.1563C30.2812 11.7867 30.0943 12.403 29.7441 12.9271C29.3938 13.4513 28.896 13.8599 28.3136 14.1011C27.7311 14.3424 27.0902 14.4055 26.4719 14.2825C25.8536 14.1595 25.2856 13.8559 24.8398 13.4102C24.3941 12.9644 24.0905 12.3964 23.9675 11.7781C23.8445 11.1598 23.9076 10.5189 24.1489 9.93645C24.3901 9.35401 24.7987 8.85619 25.3229 8.50594C25.847 8.15569 26.4633 7.96875 27.0937 7.96875C27.9391 7.96875 28.7499 8.30458 29.3477 8.90235C29.9454 9.50012 30.2812 10.3109 30.2812 11.1563ZM21.7812 4.78125C22.5452 4.78117 23.2838 5.05548 23.8625 5.55423C24.4412 6.05298 24.8215 6.74298 24.9342 7.49859C24.3239 7.85771 23.813 8.36364 23.4479 8.97041C23.0828 9.57717 22.8752 10.2655 22.8437 10.973C22.406 11.1282 21.9396 11.1859 21.4773 11.142C21.0149 11.0981 20.5677 10.9537 20.167 10.7189C19.7662 10.4841 19.4217 10.1645 19.1574 9.78259C18.8931 9.40067 18.7154 8.96561 18.6369 8.50785C18.5583 8.05009 18.5808 7.58069 18.7026 7.1325C18.8245 6.68432 19.0428 6.26818 19.3423 5.91321C19.6418 5.55823 20.0153 5.273 20.4366 5.07747C20.8579 4.88194 21.3168 4.78085 21.7812 4.78125Z" fill="#3B3A38" stroke="#3B3A38" stroke-width="2" mask="url(#path-1-inside-1_3028_1102)"/>
</svg>
