<svg width="13" height="13" viewBox="0 0 13 13" fill="none" xmlns="http://www.w3.org/2000/svg">
<path d="M4.84925 8.40233L4.375 10.0625L3.90075 8.40233C3.77818 7.9735 3.54836 7.58297 3.23298 7.2676C2.91761 6.95223 2.52708 6.72241 2.09825 6.59983L0.4375 6.125L2.09767 5.65075C2.5265 5.52818 2.91703 5.29836 3.2324 4.98298C3.54777 4.66761 3.77759 4.27708 3.90017 3.84825L4.375 2.1875L4.84925 3.84767C4.97182 4.2765 5.20164 4.66703 5.51702 4.9824C5.83239 5.29777 6.22292 5.52759 6.65175 5.65017L8.3125 6.125L6.65233 6.59925C6.2235 6.72182 5.83297 6.95164 5.5176 7.26702C5.20223 7.58239 4.97241 7.97292 4.84983 8.40175L4.84925 8.40233ZM9.77608 4.20875L9.625 4.8125L9.47392 4.20875C9.38744 3.86259 9.20851 3.54644 8.95627 3.2941C8.70403 3.04176 8.38795 2.8627 8.04183 2.77608L7.4375 2.625L8.04183 2.47392C8.38795 2.3873 8.70403 2.20824 8.95627 1.9559C9.20851 1.70355 9.38744 1.38741 9.47392 1.04125L9.625 0.4375L9.77608 1.04125C9.86261 1.38748 10.0416 1.70368 10.294 1.95603C10.5463 2.20838 10.8625 2.38739 11.2087 2.47392L11.8125 2.625L11.2087 2.77608C10.8625 2.86261 10.5463 3.04162 10.294 3.29397C10.0416 3.54632 9.86261 3.86252 9.77608 4.20875ZM8.97983 11.1224L8.75 11.8125L8.52017 11.1224C8.45573 10.9291 8.34718 10.7535 8.2031 10.6094C8.05902 10.4653 7.88338 10.3568 7.69008 10.2923L7 10.0625L7.69008 9.83267C7.88338 9.76823 8.05902 9.65968 8.2031 9.5156C8.34718 9.37152 8.45573 9.19588 8.52017 9.00258L8.75 8.3125L8.97983 9.00258C9.04427 9.19588 9.15282 9.37152 9.2969 9.5156C9.44097 9.65968 9.61662 9.76823 9.80992 9.83267L10.5 10.0625L9.80992 10.2923C9.61662 10.3568 9.44097 10.4653 9.2969 10.6094C9.15282 10.7535 9.04427 10.9291 8.97983 11.1224Z" stroke="#4B5563" stroke-width="0.875" stroke-linecap="round" stroke-linejoin="round"/>
</svg>
