<svg width="12" height="11" viewBox="0 0 12 11" fill="none" xmlns="http://www.w3.org/2000/svg">
<path d="M4.58215 0.691209C4.8815 -0.230102 6.18491 -0.2301 6.48426 0.691211L7.1048 2.60104C7.23868 3.01306 7.62263 3.29202 8.05586 3.29202H10.064C11.0327 3.29202 11.4355 4.53164 10.6518 5.10104L9.02716 6.28138C8.67667 6.53603 8.53001 6.98739 8.66389 7.39942L9.28443 9.30924C9.58378 10.2306 8.5293 10.9967 7.74559 10.4273L6.12099 9.24694C5.7705 8.99229 5.29591 8.9923 4.94542 9.24694L3.32082 10.4273C2.5371 10.9967 1.48263 10.2306 1.78198 9.30924L2.40252 7.39942C2.53639 6.98739 2.38974 6.53603 2.03925 6.28138L0.414648 5.10104C-0.369066 4.53164 0.0337112 3.29202 1.00243 3.29202H3.01055C3.44378 3.29202 3.82773 3.01306 3.96161 2.60104L4.58215 0.691209Z" fill="#E4A70A"/>
</svg>
