<svg width="270" height="200" viewBox="0 0 270 200" fill="none" xmlns="http://www.w3.org/2000/svg">
<g clip-path="url(#clip0_811_3117)">
<path d="M106.03 0C72.7867 0 45.9606 25.0526 41.4931 56.9053C17.8911 63.2 0 83.8526 0 109.211C0 137.337 21.9266 159.947 49.3955 163.158C57.0556 184.547 76.7274 200 100.761 200C117.219 200 130.738 191.653 140.937 180.263C149.314 186.737 159.187 191.453 170.566 191.453C192.251 191.453 210.1 177.032 216.664 157.558H217.654C246.398 157.558 270 134.189 270 105.589C270 81.1895 252.425 61.4316 229.508 55.9158C222.132 35.6421 203.272 20.7263 180.439 20.7263C171.883 20.7263 164.255 23.3579 157.069 26.9684C144.952 11.3684 127.314 0 106.03 0Z" fill="#AD6B39" fill-opacity="0.89"/>
<path d="M106.029 0.75C127.025 0.75 144.463 11.9616 156.477 27.4287L156.854 27.915L157.405 27.6387C164.533 24.0574 172.043 21.4766 180.439 21.4766C202.927 21.4768 221.524 36.1662 228.803 56.1719L228.94 56.5508L229.332 56.6445C251.949 62.0881 269.25 81.5729 269.25 105.59C269.25 133.77 245.989 156.808 217.654 156.808H216.125L215.953 157.318C209.482 176.516 191.899 190.703 170.566 190.703C159.405 190.703 149.689 186.08 141.396 179.67L140.844 179.243L140.379 179.763C130.274 191.047 116.944 199.25 100.762 199.25C77.07 199.25 57.6638 184.021 50.1016 162.905L49.9443 162.467L49.4824 162.413L48.2158 162.25C21.6913 158.544 0.750211 136.494 0.75 109.211C0.75 84.2276 18.378 63.8464 41.6865 57.6299L42.167 57.502L42.2354 57.0098C46.6538 25.5071 73.1808 0.750176 106.029 0.75Z" stroke="#FFF9F2" stroke-opacity="0.62" stroke-width="1.5"/>
</g>
<defs>
<clipPath id="clip0_811_3117">
<rect width="270" height="200" fill="white"/>
</clipPath>
</defs>
</svg>
