<svg width="22" height="26" viewBox="0 0 22 26" fill="none" xmlns="http://www.w3.org/2000/svg">
<path fill-rule="evenodd" clip-rule="evenodd" d="M3.874 0.755455L17.5715 0.75C17.997 0.749906 18.4069 0.922 18.7195 1.23201C19.0322 1.54202 19.2247 1.9672 19.2588 2.42286L20.7717 22.4227C20.7898 22.6608 20.764 22.9003 20.6959 23.1277C20.6277 23.3551 20.5186 23.5658 20.3746 23.7479C20.2306 23.9299 20.0547 24.0797 19.8569 24.1886C19.659 24.2976 19.4431 24.3636 19.2215 24.3828L19.0862 24.3883H2.44231C1.99348 24.3883 1.56304 24.1967 1.24567 23.8557C0.928297 23.5147 0.75 23.0522 0.75 22.57L0.755077 22.43L2.18677 2.43377C2.21959 1.97713 2.41159 1.55061 2.72438 1.23947C3.03718 0.928322 3.44774 0.755469 3.874 0.755455Z" stroke="#3B3A38" stroke-width="1.5" stroke-linecap="round" stroke-linejoin="round"/>
<path d="M15.8453 8.02344V9.19626C15.8453 11.2055 12.6383 11.6601 10.7683 11.6601C8.89833 11.6601 5.69141 10.9419 5.69141 8.9326V8.02344" stroke="#3B3A38" stroke-width="1.5" stroke-linecap="round" stroke-linejoin="round"/>
</svg>
