<svg width="20" height="20" viewBox="0 0 20 20" fill="none" xmlns="http://www.w3.org/2000/svg">
<path d="M11.6667 1.58325C12.1646 1.58325 12.5631 1.74916 12.907 2.09302C13.2508 2.43688 13.4167 2.83545 13.4167 3.33325C13.4167 3.44083 13.4072 3.53126 13.3914 3.60669C13.3735 3.6919 13.3453 3.78521 13.3044 3.88696L12.8904 4.91626H17.5837V8.41626H15.9167V17.5833H4.08374V8.41626H2.41675V4.91626H7.27515L6.65601 3.802C6.62971 3.75464 6.61429 3.70908 6.60718 3.66138C6.59242 3.56164 6.58429 3.45223 6.58374 3.33325C6.58374 2.83561 6.74889 2.43681 7.09253 2.09302C7.43639 1.74916 7.83594 1.58325 8.33374 1.58325C8.55793 1.58329 8.75591 1.62404 8.9353 1.70044C9.13651 1.78615 9.32602 1.90557 9.50464 2.06274L10.0173 2.51392L10.5144 2.04614C10.6878 1.88293 10.8661 1.76992 11.0496 1.69653C11.2329 1.62321 11.4362 1.58325 11.6667 1.58325ZM4.24976 17.4163H9.91675V8.41626H4.24976V17.4163ZM10.0837 17.4163H15.7498V8.41626H10.0837V17.4163ZM2.58374 8.25024H9.91675V5.08325H2.58374V8.25024ZM10.0837 8.25024H17.4167V5.08325H10.0837V8.25024ZM8.33472 1.75024C7.90805 1.74935 7.51422 1.9015 7.20679 2.21216C6.90381 2.51832 6.75184 2.90697 6.74976 3.32935V3.33325C6.74976 3.75852 6.90256 4.14999 7.20972 4.45728C7.51702 4.76458 7.90895 4.91715 8.33472 4.91626C8.75849 4.91526 9.14898 4.76375 9.45581 4.45923C9.7658 4.15138 9.91876 3.75672 9.91675 3.32935C9.91467 2.90687 9.76318 2.51669 9.45776 2.21021C9.1508 1.90231 8.75865 1.75124 8.33472 1.75024ZM11.6667 1.75024C11.2413 1.75024 10.8489 1.90202 10.5417 2.21021C10.2362 2.51684 10.0848 2.90743 10.0837 3.3313C10.0827 3.75785 10.2356 4.14991 10.5427 4.45728C10.8502 4.7648 11.2433 4.91828 11.6707 4.91626C12.093 4.91418 12.4815 4.76234 12.7878 4.46021C13.1001 4.15209 13.2527 3.75686 13.2498 3.32837C13.2468 2.90711 13.0971 2.51665 12.7917 2.21021C12.485 1.90234 12.0932 1.75232 11.6707 1.75024H11.6667Z" stroke="#242220" stroke-width="1.5"/>
</svg>
