<svg width="20" height="20" viewBox="0 0 20 20" fill="none" xmlns="http://www.w3.org/2000/svg">
<path fill-rule="evenodd" clip-rule="evenodd" d="M10.8334 2.50008C10.8334 2.27907 10.7456 2.06711 10.5893 1.91083C10.4331 1.75455 10.2211 1.66675 10.0001 1.66675C9.77907 1.66675 9.5671 1.75455 9.41082 1.91083C9.25454 2.06711 9.16675 2.27907 9.16675 2.50008V2.91675C9.16675 3.13776 9.25454 3.34972 9.41082 3.506C9.5671 3.66228 9.77907 3.75008 10.0001 3.75008C10.2211 3.75008 10.4331 3.66228 10.5893 3.506C10.7456 3.34972 10.8334 3.13776 10.8334 2.91675V2.50008ZM3.75008 10.0001C3.75008 10.2211 3.66228 10.4331 3.506 10.5893C3.34972 10.7456 3.13776 10.8334 2.91675 10.8334H2.50008C2.27907 10.8334 2.06711 10.7456 1.91083 10.5893C1.75455 10.4331 1.66675 10.2211 1.66675 10.0001C1.66675 9.77907 1.75455 9.5671 1.91083 9.41082C2.06711 9.25454 2.27907 9.16675 2.50008 9.16675H2.91675C3.13776 9.16675 3.34972 9.25454 3.506 9.41082C3.66228 9.5671 3.75008 9.77907 3.75008 10.0001ZM18.3334 10.0001C18.3334 10.2211 18.2456 10.4331 18.0893 10.5893C17.9331 10.7456 17.7211 10.8334 17.5001 10.8334H17.0834C16.8624 10.8334 16.6504 10.7456 16.4942 10.5893C16.3379 10.4331 16.2501 10.2211 16.2501 10.0001C16.2501 9.77907 16.3379 9.5671 16.4942 9.41082C16.6504 9.25454 16.8624 9.16675 17.0834 9.16675H17.5001C17.7211 9.16675 17.9331 9.25454 18.0893 9.41082C18.2456 9.5671 18.3334 9.77907 18.3334 10.0001ZM10.0001 16.2501C10.2211 16.2501 10.4331 16.3379 10.5893 16.4942C10.7456 16.6504 10.8334 16.8624 10.8334 17.0834V17.5001C10.8334 17.7211 10.7456 17.9331 10.5893 18.0893C10.4331 18.2456 10.2211 18.3334 10.0001 18.3334C9.77907 18.3334 9.5671 18.2456 9.41082 18.0893C9.25454 17.9331 9.16675 17.7211 9.16675 17.5001V17.0834C9.16675 16.8624 9.25454 16.6504 9.41082 16.4942C9.5671 16.3379 9.77907 16.2501 10.0001 16.2501ZM16.4817 4.69675C16.6335 4.53958 16.7175 4.32908 16.7156 4.11058C16.7137 3.89208 16.6261 3.68307 16.4716 3.52857C16.3171 3.37406 16.1081 3.28642 15.8896 3.28452C15.6711 3.28262 15.4606 3.36662 15.3034 3.51841L13.5359 5.28508C13.4585 5.36245 13.3971 5.45431 13.3551 5.55542C13.3132 5.65653 13.2916 5.76491 13.2916 5.87437C13.2915 5.98383 13.3131 6.09222 13.3549 6.19336C13.3968 6.2945 13.4581 6.38641 13.5355 6.46383C13.6129 6.54126 13.7047 6.60268 13.8058 6.64461C13.9069 6.68653 14.0153 6.70813 14.1248 6.70817C14.2342 6.7082 14.3426 6.68668 14.4438 6.64483C14.5449 6.60298 14.6368 6.54162 14.7142 6.46425L16.4817 4.69675ZM6.46508 13.5359C6.62131 13.6922 6.70907 13.9041 6.70907 14.1251C6.70907 14.3461 6.62131 14.558 6.46508 14.7142L4.69591 16.4834C4.53955 16.6397 4.32751 16.7274 4.10645 16.7273C3.88539 16.7273 3.67342 16.6394 3.51716 16.483C3.36091 16.3266 3.27317 16.1146 3.27325 15.8935C3.27332 15.6725 3.36121 15.4605 3.51758 15.3042L5.28508 13.5376C5.44135 13.3814 5.65328 13.2936 5.87425 13.2936C6.09522 13.2936 6.30714 13.3814 6.46341 13.5376M4.69591 3.51841C4.53875 3.36662 4.32824 3.28262 4.10975 3.28452C3.89125 3.28642 3.68224 3.37406 3.52773 3.52857C3.37323 3.68307 3.28558 3.89208 3.28369 4.11058C3.28179 4.32908 3.36578 4.53958 3.51758 4.69675L5.28425 6.46425C5.4405 6.62061 5.65248 6.7085 5.87354 6.70858C6.09459 6.70866 6.30663 6.62092 6.463 6.46466C6.61936 6.30841 6.70725 6.09643 6.70733 5.87538C6.70741 5.65432 6.61967 5.44228 6.46341 5.28591L4.69591 3.51841ZM13.5351 13.5359C13.6914 13.3797 13.9033 13.2919 14.1242 13.2919C14.3452 13.2919 14.5571 13.3797 14.7134 13.5359L16.4809 15.3034C16.5583 15.3808 16.6198 15.4726 16.6617 15.5738C16.7036 15.6749 16.7252 15.7832 16.7252 15.8927C16.7253 16.0022 16.7038 16.1106 16.6619 16.2117C16.6201 16.3128 16.5587 16.4047 16.4813 16.4822C16.404 16.5596 16.3121 16.621 16.211 16.6629C16.1099 16.7049 16.0015 16.7265 15.892 16.7265C15.7826 16.7265 15.6742 16.705 15.573 16.6632C15.4719 16.6213 15.38 16.5599 15.3026 16.4826L13.5351 14.7142C13.3789 14.558 13.2911 14.3461 13.2911 14.1251C13.2911 13.9041 13.3789 13.6922 13.5351 13.5359ZM10.7901 5.11675C10.7331 4.95359 10.6267 4.8122 10.4858 4.71215C10.3448 4.61211 10.1763 4.55837 10.0034 4.55837C9.83057 4.55837 9.66201 4.61211 9.52107 4.71215C9.38012 4.8122 9.27377 4.95359 9.21675 5.11675C8.88511 6.06418 8.34432 6.92474 7.63453 7.63453C6.92474 8.34432 6.06418 8.88511 5.11675 9.21675C4.95359 9.27377 4.8122 9.38012 4.71215 9.52107C4.61211 9.66201 4.55837 9.83057 4.55837 10.0034C4.55837 10.1763 4.61211 10.3448 4.71215 10.4858C4.8122 10.6267 4.95359 10.7331 5.11675 10.7901C6.06388 11.1222 6.92416 11.6632 7.63388 12.3729C8.3436 13.0827 8.88458 13.9429 9.21675 14.8901C9.27377 15.0532 9.38012 15.1946 9.52107 15.2947C9.66201 15.3947 9.83057 15.4485 10.0034 15.4485C10.1763 15.4485 10.3448 15.3947 10.4858 15.2947C10.6267 15.1946 10.7331 15.0532 10.7901 14.8901C11.1222 13.9429 11.6632 13.0827 12.3729 12.3729C13.0827 11.6632 13.9429 11.1222 14.8901 10.7901C15.0532 10.7331 15.1946 10.6267 15.2947 10.4858C15.3947 10.3448 15.4485 10.1763 15.4485 10.0034C15.4485 9.83057 15.3947 9.66201 15.2947 9.52107C15.1946 9.38012 15.0532 9.27377 14.8901 9.21675C13.9429 8.88458 13.0827 8.3436 12.3729 7.63388C11.6632 6.92416 11.1222 6.06388 10.7901 5.11675ZM10.0034 12.6951C9.32469 11.6031 8.40368 10.6821 7.31175 10.0034C8.40368 9.32469 9.32469 8.40368 10.0034 7.31175C10.6821 8.40368 11.6031 9.32469 12.6951 10.0034C11.6031 10.6821 10.6821 11.6031 10.0034 12.6951Z" fill="#242220"/>
</svg>
