<svg width="20" height="20" viewBox="0 0 20 20" fill="none" xmlns="http://www.w3.org/2000/svg">
<path d="M4.16644 5.7504H10.9164V5.91642H4.20843L3.98382 6.21622L2.14398 8.66837L1.77386 9.16153L2.18695 9.62052L8.60882 16.7563L9.16644 17.3754L9.72406 16.7563L16.102 9.66837L16.226 9.77872L9.22894 17.5551C9.22117 17.5637 9.21122 17.5709 9.20062 17.5756C9.18995 17.5803 9.17811 17.5834 9.16644 17.5834C9.15495 17.5834 9.14376 17.5802 9.13324 17.5756C9.12257 17.5708 9.11175 17.5638 9.10394 17.5551L1.60492 9.22208C1.59205 9.20776 1.58431 9.18956 1.58343 9.17032C1.583 9.16067 1.58453 9.1511 1.58734 9.142L1.60003 9.11661L4.10003 5.7836C4.10775 5.77332 4.11785 5.76497 4.12933 5.75919C4.14083 5.75344 4.15358 5.75044 4.16644 5.7504ZM15.8325 2.09708C16.2722 3.03078 17.0282 3.78106 17.9692 4.21427C17.0376 4.63203 16.2827 5.36071 15.8325 6.27189C15.3826 5.36107 14.6296 4.63232 13.6987 4.21427C14.6389 3.7809 15.393 3.03021 15.8325 2.09708Z" stroke="black" stroke-width="1.5"/>
</svg>
