<svg width="32" height="30" viewBox="0 0 32 30" fill="none" xmlns="http://www.w3.org/2000/svg">
<path d="M13.3613 2.09766C14.0537 -0.0326899 17.0674 -0.032689 17.7598 2.09766L19.5049 7.46875C19.9483 8.8335 21.2203 9.75771 22.6553 9.75781H28.3037C30.5436 9.75814 31.4743 12.6247 29.6621 13.9414L25.0938 17.2607C23.9328 18.1043 23.4462 19.6 23.8896 20.9648L25.6357 26.3359C26.3279 28.4663 23.8894 30.238 22.0771 28.9219L17.5078 25.6016C16.3468 24.7581 14.7743 24.7581 13.6133 25.6016L9.04395 28.9219C7.23167 30.238 4.79323 28.4663 5.48535 26.3359L7.23145 20.9648C7.6749 19.6 7.18833 18.1043 6.02734 17.2607L1.45898 13.9414C-0.353252 12.6247 0.577484 9.75813 2.81738 9.75781H8.46582C9.90079 9.75771 11.1728 8.8335 11.6162 7.46875L13.3613 2.09766Z" stroke="#E4A70A"/>
</svg>
