<svg width="32" height="30" viewBox="0 0 32 30" fill="none" xmlns="http://www.w3.org/2000/svg">
<path d="M12.8857 1.94327C13.7276 -0.647915 17.3935 -0.64792 18.2354 1.94327L19.9807 7.31466C20.3572 8.47348 21.4371 9.25805 22.6555 9.25805H28.3033C31.0279 9.25805 32.1607 12.7445 29.9565 14.3459L25.3873 17.6656C24.4016 18.3818 23.9891 19.6513 24.3656 20.8101L26.1109 26.1815C26.9528 28.7727 23.9871 30.9274 21.7829 29.326L17.2137 26.0063C16.2279 25.2901 14.8931 25.2901 13.9074 26.0063L9.33822 29.326C7.13403 30.9274 4.1683 28.7727 5.01023 26.1815L6.7555 20.8101C7.13202 19.6513 6.71954 18.3818 5.7338 17.6656L1.16462 14.3459C-1.03958 12.7445 0.0932255 9.25805 2.81776 9.25805H8.46558C9.68403 9.25805 10.7639 8.47348 11.1404 7.31466L12.8857 1.94327Z" fill="#E4A70A"/>
</svg>
