<svg width="41" height="32" viewBox="0 0 41 32" fill="none" xmlns="http://www.w3.org/2000/svg">
<path d="M10.375 7H11.0571C12.2053 7 13.1693 7.86456 13.2938 9.00599L14.2062 17.369C14.3307 18.5104 15.2947 19.375 16.4429 19.375H26.1768C27.2053 19.375 28.1029 18.6776 28.357 17.681L29.9094 11.5935C30.2722 10.1709 29.1974 8.7875 27.7292 8.7875H14.425M14.4529 23.4531H15.2966M14.4529 24.2968H15.2966M26.8279 23.4531H27.6716M26.8279 24.2968H27.6716M16 23.875C16 24.4963 15.4963 25 14.875 25C14.2537 25 13.75 24.4963 13.75 23.875C13.75 23.2537 14.2537 22.75 14.875 22.75C15.4963 22.75 16 23.2537 16 23.875ZM28.375 23.875C28.375 24.4963 27.8713 25 27.25 25C26.6287 25 26.125 24.4963 26.125 23.875C26.125 23.2537 26.6287 22.75 27.25 22.75C27.8713 22.75 28.375 23.2537 28.375 23.875Z" stroke="#3B3A38" stroke-width="1.5" stroke-linecap="round"/>
</svg>
