<svg width="17" height="20" viewBox="0 0 17 20" fill="none" xmlns="http://www.w3.org/2000/svg">
<path d="M7.10741 7.8999C7.10741 7.40285 6.70446 6.9999 6.20741 6.9999C5.71035 6.9999 5.30741 7.40285 5.30741 7.8999H6.20741H7.10741ZM5.30741 15.8999C5.30741 16.397 5.71035 16.7999 6.20741 16.7999C6.70446 16.7999 7.10741 16.397 7.10741 15.8999H6.20741H5.30741ZM11.353 7.8999C11.353 7.40285 10.9501 6.9999 10.453 6.9999C9.95597 6.9999 9.55302 7.40285 9.55302 7.8999H10.453H11.353ZM9.55302 15.8999C9.55302 16.397 9.95597 16.7999 10.453 16.7999C10.9501 16.7999 11.353 16.397 11.353 15.8999H10.453H9.55302ZM3.12087 18.6819L3.51036 17.8706V17.8706L3.12087 18.6819ZM2.19317 17.8079L2.98481 17.3798H2.98481L2.19317 17.8079ZM14.4673 17.8079L13.6756 17.3798V17.3798L14.4673 17.8079ZM13.5396 18.6819L13.1501 17.8706H13.1501L13.5396 18.6819ZM0.900391 3.9999C0.403334 3.9999 0.000390649 4.40285 0.000390649 4.8999C0.000390649 5.39696 0.403334 5.7999 0.900391 5.7999V4.8999V3.9999ZM15.76 5.7999C16.2571 5.7999 16.66 5.39696 16.66 4.8999C16.66 4.40285 16.2571 3.9999 15.76 3.9999V4.8999V5.7999ZM3.7153 4.8999C3.7153 5.39696 4.11825 5.7999 4.6153 5.7999C5.11236 5.7999 5.5153 5.39696 5.5153 4.8999H4.6153H3.7153ZM11.1451 4.8999C11.1451 5.39696 11.5481 5.7999 12.0451 5.7999C12.5422 5.7999 12.9451 5.39696 12.9451 4.8999H12.0451H11.1451ZM6.20741 7.8999H5.30741V15.8999H6.20741H7.10741V7.8999H6.20741ZM10.453 7.8999H9.55302V15.8999H10.453H11.353V7.8999H10.453ZM14.6986 4.8999H13.7986V15.6999H14.6986H15.5986V4.8999H14.6986ZM11.3021 18.8999V17.9999H5.35828V18.8999V19.7999H11.3021V18.8999ZM1.96179 4.8999H1.06179V15.6999H1.96179H2.86179V4.8999H1.96179ZM5.35828 18.8999V17.9999C4.74984 17.9999 4.34452 17.9993 4.0331 17.9753C3.73072 17.952 3.59424 17.9108 3.51036 17.8706L3.12087 18.6819L2.73138 19.4933C3.10159 19.671 3.48937 19.7388 3.89496 19.77C4.2915 19.8005 4.77784 19.7999 5.35828 19.7999V18.8999ZM1.96179 15.6999H1.06179C1.06179 16.2442 1.06101 16.7099 1.09408 17.0913C1.12821 17.4848 1.2033 17.8695 1.40152 18.236L2.19317 17.8079L2.98481 17.3798C2.95166 17.3185 2.91106 17.2092 2.88735 16.9357C2.86258 16.6501 2.86179 16.2757 2.86179 15.6999H1.96179ZM3.12087 18.6819L3.51036 17.8706C3.27552 17.7578 3.09467 17.5829 2.98481 17.3798L2.19317 17.8079L1.40152 18.236C1.69871 18.7855 2.16735 19.2225 2.73138 19.4933L3.12087 18.6819ZM14.6986 15.6999H13.7986C13.7986 16.2757 13.7978 16.6501 13.7731 16.9357C13.7494 17.2092 13.7088 17.3185 13.6756 17.3798L14.4673 17.8079L15.2589 18.236C15.4571 17.8695 15.5322 17.4848 15.5663 17.0913C15.5994 16.7099 15.5986 16.2442 15.5986 15.6999H14.6986ZM11.3021 18.8999V19.7999C11.8826 19.7999 12.3689 19.8005 12.7655 19.77C13.1711 19.7388 13.5588 19.671 13.9291 19.4933L13.5396 18.6819L13.1501 17.8706C13.0662 17.9108 12.9297 17.952 12.6273 17.9753C12.3159 17.9993 11.9106 17.9999 11.3021 17.9999V18.8999ZM14.4673 17.8079L13.6756 17.3798C13.5658 17.5829 13.3849 17.7578 13.1501 17.8706L13.5396 18.6819L13.9291 19.4933C14.4931 19.2225 14.9617 18.7855 15.2589 18.236L14.4673 17.8079ZM0.900391 4.8999V5.7999H1.96179V4.8999V3.9999H0.900391V4.8999ZM1.96179 4.8999V5.7999H14.6986V4.8999V3.9999H1.96179V4.8999ZM14.6986 4.8999V5.7999H15.76V4.8999V3.9999H14.6986V4.8999ZM4.6153 4.0999H5.5153C5.5153 2.95098 6.64488 1.7999 8.33022 1.7999V0.899902V-9.76324e-05C5.91218 -9.76324e-05 3.7153 1.7142 3.7153 4.0999H4.6153ZM8.33022 0.899902V1.7999C10.0156 1.7999 11.1451 2.95098 11.1451 4.0999H12.0451H12.9451C12.9451 1.7142 10.7483 -9.76324e-05 8.33022 -9.76324e-05V0.899902ZM4.6153 4.0999H3.7153V4.8999H4.6153H5.5153V4.0999H4.6153ZM12.0451 4.0999H11.1451V4.8999H12.0451H12.9451V4.0999H12.0451Z" fill="#3B3A38"/>
</svg>
