<svg width="12" height="11" viewBox="0 0 12 11" fill="none" xmlns="http://www.w3.org/2000/svg">
<path d="M5.14361 0.345605C5.29329 -0.115051 5.94499 -0.11505 6.09467 0.345605L7.07848 3.37347C7.14542 3.57948 7.3374 3.71896 7.55401 3.71896H10.7377C11.2221 3.71896 11.4234 4.33877 11.0316 4.62347L8.45593 6.49479C8.28069 6.62211 8.20736 6.8478 8.2743 7.05381L9.25811 10.0817C9.40779 10.5423 8.88054 10.9254 8.48869 10.6407L5.91303 8.76937C5.73779 8.64205 5.50049 8.64205 5.32525 8.76937L2.74959 10.6407C2.35774 10.9254 1.8305 10.5423 1.98017 10.0817L2.96398 7.05381C3.03092 6.8478 2.95759 6.62211 2.78235 6.49479L0.206693 4.62347C-0.185163 4.33877 0.0162247 3.71896 0.500586 3.71896H3.68427C3.90088 3.71896 4.09286 3.57948 4.1598 3.37347L5.14361 0.345605Z" fill="#F7871B"/>
</svg>
