<svg width="40" height="43" viewBox="0 0 40 43" fill="none" xmlns="http://www.w3.org/2000/svg">
<rect width="40" height="43" fill="#3CC261"/>
<path fill-rule="evenodd" clip-rule="evenodd" d="M32 21.5C32 28.1274 26.6274 33.5 20 33.5C13.3726 33.5 8 28.1274 8 21.5C8 14.8726 13.3726 9.5 20 9.5C26.6274 9.5 32 14.8726 32 21.5ZM20 11.5C14.4772 11.5 10 15.9772 10 21.5C10 27.0228 14.4772 31.5 20 31.5C25.5228 31.5 30 27.0228 30 21.5C30 15.9772 25.5228 11.5 20 11.5ZM15.7071 21.7929L18 24.0858L24.2929 17.7929C24.6834 17.4024 25.3166 17.4024 25.7071 17.7929C26.0976 18.1834 26.0976 18.8166 25.7071 19.2071L18.7071 26.2071C18.3166 26.5976 17.6834 26.5976 17.2929 26.2071L14.2929 23.2071C13.9024 22.8166 13.9024 22.1834 14.2929 21.7929C14.6834 21.4024 15.3166 21.4024 15.7071 21.7929Z" fill="white"/>
</svg>
