<svg width="40" height="40" viewBox="0 0 40 40" fill="none" xmlns="http://www.w3.org/2000/svg">
<rect width="40" height="40" fill="#F9F9F9"/>
<path fill-rule="evenodd" clip-rule="evenodd" d="M20 18.5858L24.2929 14.2929C24.6834 13.9024 25.3166 13.9024 25.7071 14.2929C26.0976 14.6834 26.0976 15.3166 25.7071 15.7071L21.4142 20L25.7071 24.2929C26.0976 24.6834 26.0976 25.3166 25.7071 25.7071C25.3166 26.0976 24.6834 26.0976 24.2929 25.7071L20 21.4142L15.7071 25.7071C15.3166 26.0976 14.6834 26.0976 14.2929 25.7071C13.9024 25.3166 13.9024 24.6834 14.2929 24.2929L18.5858 20L14.2929 15.7071C13.9024 15.3166 13.9024 14.6834 14.2929 14.2929C14.6834 13.9024 15.3166 13.9024 15.7071 14.2929L20 18.5858Z" fill="#4A545B"/>
</svg>
