<svg width="31" height="31" viewBox="0 0 31 31" fill="none" xmlns="http://www.w3.org/2000/svg">
<path d="M4.40432 5.99075V17.5135C4.40432 23.7863 9.37207 28.8703 15.4992 28.8703C21.6264 28.8703 26.5941 23.7863 26.5941 17.5135V5.99695L15.4326 2.2413L4.40432 5.99075ZM15.4295 0L28.6742 4.4547V17.5135C28.6742 24.9612 22.7749 31 15.4992 31C8.22352 31 2.32422 24.9612 2.32422 17.5135V4.4547L15.4295 0ZM22.2789 10.0518C22.1777 9.95881 22.0589 9.8872 21.9294 9.8412C21.8 9.79519 21.6626 9.77573 21.5255 9.78398C21.3883 9.79222 21.2543 9.828 21.1313 9.88919C21.0082 9.95037 20.8988 10.0357 20.8095 10.1401L14.1197 17.8421L9.79832 13.0603C9.70695 12.9579 9.59593 12.875 9.47186 12.8164C9.34779 12.7579 9.2132 12.7248 9.07611 12.7194C8.93901 12.7139 8.80221 12.736 8.67385 12.7844C8.54549 12.8329 8.42818 12.9067 8.32892 13.0014C8.1264 13.196 8.00725 13.4617 7.99656 13.7424C7.98586 14.023 8.08444 14.297 8.27157 14.5065L13.3711 20.1484C13.4682 20.2576 13.5876 20.3448 13.7212 20.4039C13.8548 20.4631 13.9996 20.493 14.1457 20.4915C14.2919 20.49 14.436 20.4573 14.5684 20.3954C14.7008 20.3336 14.8184 20.2441 14.9133 20.1329L22.3642 11.5553C22.5473 11.3423 22.6408 11.0667 22.6249 10.7863C22.609 10.5059 22.4849 10.2426 22.2789 10.0518Z" fill="#3CC261"/>
</svg>
