<svg width="15" height="15" viewBox="0 0 15 15" fill="none" xmlns="http://www.w3.org/2000/svg">
<g clip-path="url(#clip0_3028_2431)">
<path d="M12.5 7.5V13.75H2.5V7.5M7.5 13.75V4.375M7.5 4.375H4.6875C4.2731 4.375 3.87567 4.21038 3.58265 3.91735C3.28962 3.62433 3.125 3.2269 3.125 2.8125C3.125 2.3981 3.28962 2.00067 3.58265 1.70765C3.87567 1.41462 4.2731 1.25 4.6875 1.25C6.875 1.25 7.5 4.375 7.5 4.375ZM7.5 4.375H10.3125C10.7269 4.375 11.1243 4.21038 11.4174 3.91735C11.7104 3.62433 11.875 3.2269 11.875 2.8125C11.875 2.3981 11.7104 2.00067 11.4174 1.70765C11.1243 1.41462 10.7269 1.25 10.3125 1.25C8.125 1.25 7.5 4.375 7.5 4.375ZM1.25 4.375H13.75V7.5H1.25V4.375Z" stroke="#A24112" stroke-linecap="round" stroke-linejoin="round"/>
</g>
<defs>
<clipPath id="clip0_3028_2431">
<rect width="15" height="15" fill="white"/>
</clipPath>
</defs>
</svg>
